<mxfile host="app.diagrams.net" modified="2023-10-04T12:50:19.015Z" agent="Mozilla/5.0 (X11; Ubuntu; Linux x86_64; rv:109.0) Gecko/20100101 Firefox/109.0" etag="0T7-jh_5JouQBFMwMJis" version="22.0.2" type="device">
  <diagram name="Página-1" id="_BRIqXboFVfrqp_vQRh6">
    <mxGraphModel dx="333" dy="179" grid="1" gridSize="10" guides="1" tooltips="1" connect="1" arrows="1" fold="1" page="1" pageScale="1" pageWidth="827" pageHeight="1169" math="0" shadow="0">
      <root>
        <mxCell id="0" />
        <mxCell id="1" parent="0" />
        <mxCell id="zUA_RDrrcOZnOVkDenzU-3" value="" style="edgeStyle=orthogonalEdgeStyle;rounded=0;orthogonalLoop=1;jettySize=auto;html=1;" parent="1" source="zUA_RDrrcOZnOVkDenzU-1" target="zUA_RDrrcOZnOVkDenzU-2" edge="1">
          <mxGeometry relative="1" as="geometry" />
        </mxCell>
        <mxCell id="zUA_RDrrcOZnOVkDenzU-1" value="Inicio" style="strokeWidth=2;html=1;shape=mxgraph.flowchart.start_1;whiteSpace=wrap;" parent="1" vertex="1">
          <mxGeometry x="364" y="110" width="100" height="60" as="geometry" />
        </mxCell>
        <mxCell id="zUA_RDrrcOZnOVkDenzU-5" value="" style="edgeStyle=orthogonalEdgeStyle;rounded=0;orthogonalLoop=1;jettySize=auto;html=1;" parent="1" source="zUA_RDrrcOZnOVkDenzU-2" target="zUA_RDrrcOZnOVkDenzU-4" edge="1">
          <mxGeometry relative="1" as="geometry" />
        </mxCell>
        <mxCell id="zUA_RDrrcOZnOVkDenzU-2" value="Coger un vaso" style="rounded=1;whiteSpace=wrap;html=1;absoluteArcSize=1;arcSize=14;strokeWidth=2;" parent="1" vertex="1">
          <mxGeometry x="364" y="190" width="100" height="40" as="geometry" />
        </mxCell>
        <mxCell id="zUA_RDrrcOZnOVkDenzU-7" value="" style="edgeStyle=orthogonalEdgeStyle;rounded=0;orthogonalLoop=1;jettySize=auto;html=1;" parent="1" source="zUA_RDrrcOZnOVkDenzU-4" target="zUA_RDrrcOZnOVkDenzU-6" edge="1">
          <mxGeometry relative="1" as="geometry" />
        </mxCell>
        <mxCell id="zUA_RDrrcOZnOVkDenzU-4" value="Echar leche en un vaso" style="whiteSpace=wrap;html=1;rounded=1;arcSize=14;strokeWidth=2;" parent="1" vertex="1">
          <mxGeometry x="361" y="260" width="106" height="40" as="geometry" />
        </mxCell>
        <mxCell id="zUA_RDrrcOZnOVkDenzU-11" value="" style="edgeStyle=orthogonalEdgeStyle;rounded=0;orthogonalLoop=1;jettySize=auto;html=1;" parent="1" source="zUA_RDrrcOZnOVkDenzU-6" target="zUA_RDrrcOZnOVkDenzU-10" edge="1">
          <mxGeometry relative="1" as="geometry" />
        </mxCell>
        <mxCell id="zUA_RDrrcOZnOVkDenzU-6" value="Meterlo en el microondas" style="whiteSpace=wrap;html=1;rounded=1;arcSize=14;strokeWidth=2;" parent="1" vertex="1">
          <mxGeometry x="358.5" y="330" width="111" height="40" as="geometry" />
        </mxCell>
        <mxCell id="zUA_RDrrcOZnOVkDenzU-13" value="" style="edgeStyle=orthogonalEdgeStyle;rounded=0;orthogonalLoop=1;jettySize=auto;html=1;" parent="1" source="zUA_RDrrcOZnOVkDenzU-10" target="zUA_RDrrcOZnOVkDenzU-12" edge="1">
          <mxGeometry relative="1" as="geometry" />
        </mxCell>
        <mxCell id="zUA_RDrrcOZnOVkDenzU-16" value="&lt;div&gt;Si&lt;/div&gt;" style="edgeLabel;html=1;align=center;verticalAlign=middle;resizable=0;points=[];" parent="zUA_RDrrcOZnOVkDenzU-13" vertex="1" connectable="0">
          <mxGeometry x="-0.35" relative="1" as="geometry">
            <mxPoint as="offset" />
          </mxGeometry>
        </mxCell>
        <mxCell id="zUA_RDrrcOZnOVkDenzU-14" style="edgeStyle=orthogonalEdgeStyle;rounded=0;orthogonalLoop=1;jettySize=auto;html=1;entryX=1;entryY=0.5;entryDx=0;entryDy=0;" parent="1" source="zUA_RDrrcOZnOVkDenzU-10" target="zUA_RDrrcOZnOVkDenzU-6" edge="1">
          <mxGeometry relative="1" as="geometry">
            <mxPoint x="500" y="340" as="targetPoint" />
            <Array as="points">
              <mxPoint x="501" y="430" />
              <mxPoint x="501" y="350" />
            </Array>
          </mxGeometry>
        </mxCell>
        <mxCell id="zUA_RDrrcOZnOVkDenzU-15" value="No" style="edgeLabel;html=1;align=center;verticalAlign=middle;resizable=0;points=[];" parent="zUA_RDrrcOZnOVkDenzU-14" vertex="1" connectable="0">
          <mxGeometry x="-0.0566" relative="1" as="geometry">
            <mxPoint as="offset" />
          </mxGeometry>
        </mxCell>
        <mxCell id="zUA_RDrrcOZnOVkDenzU-10" value="&lt;div&gt;&lt;font style=&quot;font-size: 10px;&quot;&gt;Está &lt;br&gt;&lt;/font&gt;&lt;/div&gt;&lt;div&gt;&lt;font style=&quot;font-size: 10px;&quot; size=&quot;3&quot;&gt;suficientemente &lt;br&gt;&lt;/font&gt;&lt;/div&gt;&lt;div&gt;&lt;font style=&quot;font-size: 10px;&quot; size=&quot;3&quot;&gt;caliente?&lt;/font&gt;&lt;/div&gt;" style="rhombus;whiteSpace=wrap;html=1;rounded=1;arcSize=14;strokeWidth=2;shadow=0;" parent="1" vertex="1">
          <mxGeometry x="354" y="400" width="120" height="60" as="geometry" />
        </mxCell>
        <mxCell id="zUA_RDrrcOZnOVkDenzU-18" value="" style="edgeStyle=orthogonalEdgeStyle;rounded=0;orthogonalLoop=1;jettySize=auto;html=1;" parent="1" source="zUA_RDrrcOZnOVkDenzU-12" target="zUA_RDrrcOZnOVkDenzU-17" edge="1">
          <mxGeometry relative="1" as="geometry" />
        </mxCell>
        <mxCell id="zUA_RDrrcOZnOVkDenzU-12" value="Sacarlo del microondas" style="whiteSpace=wrap;html=1;rounded=1;arcSize=14;strokeWidth=2;shadow=0;" parent="1" vertex="1">
          <mxGeometry x="357" y="500" width="114" height="40" as="geometry" />
        </mxCell>
        <mxCell id="zUA_RDrrcOZnOVkDenzU-20" value="" style="edgeStyle=orthogonalEdgeStyle;rounded=0;orthogonalLoop=1;jettySize=auto;html=1;" parent="1" source="zUA_RDrrcOZnOVkDenzU-17" target="zUA_RDrrcOZnOVkDenzU-19" edge="1">
          <mxGeometry relative="1" as="geometry" />
        </mxCell>
        <mxCell id="zUA_RDrrcOZnOVkDenzU-17" value="Echar el cacao" style="whiteSpace=wrap;html=1;rounded=1;arcSize=14;strokeWidth=2;shadow=0;" parent="1" vertex="1">
          <mxGeometry x="357" y="565" width="114" height="40" as="geometry" />
        </mxCell>
        <mxCell id="zUA_RDrrcOZnOVkDenzU-22" value="" style="edgeStyle=orthogonalEdgeStyle;rounded=0;orthogonalLoop=1;jettySize=auto;html=1;" parent="1" source="zUA_RDrrcOZnOVkDenzU-19" target="zUA_RDrrcOZnOVkDenzU-21" edge="1">
          <mxGeometry relative="1" as="geometry" />
        </mxCell>
        <mxCell id="zUA_RDrrcOZnOVkDenzU-19" value="Echarle azúcar" style="whiteSpace=wrap;html=1;rounded=1;arcSize=14;strokeWidth=2;shadow=0;" parent="1" vertex="1">
          <mxGeometry x="357" y="630" width="114" height="40" as="geometry" />
        </mxCell>
        <mxCell id="bvqRU1BNqIHAByDibJjl-2" value="" style="edgeStyle=orthogonalEdgeStyle;rounded=0;orthogonalLoop=1;jettySize=auto;html=1;" edge="1" parent="1" source="zUA_RDrrcOZnOVkDenzU-21" target="bvqRU1BNqIHAByDibJjl-1">
          <mxGeometry relative="1" as="geometry" />
        </mxCell>
        <mxCell id="zUA_RDrrcOZnOVkDenzU-21" value="Moverlo" style="whiteSpace=wrap;html=1;rounded=1;arcSize=14;strokeWidth=2;shadow=0;" parent="1" vertex="1">
          <mxGeometry x="357" y="690" width="114" height="40" as="geometry" />
        </mxCell>
        <mxCell id="bvqRU1BNqIHAByDibJjl-1" value="Fin" style="strokeWidth=2;html=1;shape=mxgraph.flowchart.terminator;whiteSpace=wrap;" vertex="1" parent="1">
          <mxGeometry x="359" y="760" width="109.5" height="40" as="geometry" />
        </mxCell>
      </root>
    </mxGraphModel>
  </diagram>
</mxfile>
